PathFileType	4	(X/Y/Z)	C:/Users/beibeiliu/ov580/test_trc/User3\sequence.6_training_dense_right.trc
DataRate	CameraRate	NumFrames	NumMarkers	Units	OrigDataRate	OrigDataStartFrame	OrigNumFrames
120	120	12	19	mm	120	54	107
Frame#	Time	ThumbCMC			ThumbMCP			ThumbIP			ThumbTip			IndexMCP			IndexPIP			IndexTip			MiddleMCP			MiddlePIP			MiddleTip			RingMCP			RingPIP			RingTip			PinkyMCP			PinkyPIP			PinkyTip			BackHand1			BackHand2			BackHand3	
		X0	Y0	Z0	X1	Y1	Z1	X2	Y2	Z2	X3	Y3	Z3	X4	Y4	Z4	X5	Y5	Z5	X6	Y6	Z6	X7	Y7	Z7	X8	Y8	Z8	X9	Y9	Z9	X10	Y10	Z10	X11	Y11	Z11	X12	Y12	Z12	X13	Y13	Z13	X14	Y14	Z14	X15	Y15	Z15	X16	Y16	Z16	X17	Y17	Z17	X18	Y18	Z18	
53	0.441667	38.8117	-22.2551	-0.88233	15.9398	-34.5387	-25.9732	10.9715	-45.8449	-51.8454	25.8317	-57.7771	-77.0368	36.8191	-11.1092	-75.6518	23.7904	-38.6756	-84.1137	32.2148	-45.325	-52.4071	50.7662	-22.5217	-83.5335	38.9334	-55.7035	-80.5009	50.3106	-53.9805	-44.5938	68.4867	-41.3746	-80.0751	58.18	-65.6406	-68.1639	59.5887	-53.2397	-34.3857	84.9681	-49.3458	-70.5907	72.8784	-70.1221	-56.7852	72.8389	-57.9141	-29.0798	96.962	-8.03775	-34.8612	103.31	-12.0188	-5.00283	68.5859	2.5984	-11.5295	
54	0.45	42.3772	-24.2246	-0.813143	21.4881	-35.5691	-23.8769	13.0279	-45.7038	-53.9282	23.0552	-57.8565	-72.3858	37.547	-12.9604	-79.0325	22.219	-40.8292	-83.1671	28.9283	-48.6505	-53.9716	51.6612	-23.9717	-85.5059	38.7634	-55.2592	-82.6695	44.8005	-56.5535	-46.7969	66.9084	-39.4126	-80.0989	59.9817	-66.3072	-72.5474	60.1391	-61.3656	-39.5034	83.2267	-50.7298	-72.8359	70.2954	-69.8647	-58.8462	74.2168	-60.0644	-28.1187	93.5741	-8.71629	-36.4286	105.074	-13.4928	-4.68702	68.6161	2.40457	-13.718	
55	0.458333	44.1135	-24.1709	-0.376657	23.5972	-34.2926	-25.5387	12.299	-45.4021	-48.6982	24.0396	-57.4234	-72.1972	37.7646	-10.2379	-76.184	25.0655	-35.9601	-88.6429	25.7798	-52.3445	-62.1847	54.7917	-21.4151	-85.2163	39.7112	-50.0532	-90.6969	45.728	-61.6635	-51.9289	73.9246	-36.0388	-80.6924	55.4366	-63.3249	-78.694	60.5462	-67.7061	-45.8254	87.7491	-47.0627	-72.3505	73.2655	-72.332	-67.0871	67.3351	-68.653	-38.4224	96.6915	-9.50407	-35.4978	105.469	-14.5872	-3.07589	67.7093	1.34546	-11.561	
56	0.466667	44.1351	-23.5219	0.648247	22.3187	-35.8475	-22.4322	11.5799	-44.8295	-47.3428	14.8727	-57.7175	-69.4381	41.9259	-8.41745	-76.1625	25.3477	-24.53	-95.5376	20.2559	-54.5578	-78.3299	57.9929	-15.4754	-85.1701	44.7737	-38.9937	-102.767	39.7363	-66.6321	-74.2384	74.6333	-28.2534	-80.8662	64.3135	-55.7857	-95.2906	59.1264	-73.5125	-68.2242	90.946	-41.9216	-73.1517	80.4798	-67.2899	-82.2375	70.7427	-78.2705	-55.2782	98.1514	-12.6463	-31.9612	105.909	-12.8258	-3.62134	71.1241	-1.01865	-12.6883	
57	0.475	42.2663	-26.1964	1.62543	19.1214	-37.9497	-22.5587	3.61097	-49.16	-46.475	5.32686	-60.4957	-63.0886	39.6485	-7.19949	-73.066	27.2003	-17.2345	-101.963	18.5932	-48.7855	-105.814	62.448	-12.1407	-85.6456	47.5363	-27.4196	-113.274	39.9151	-62.7473	-109.606	82.68	-23.0852	-80.8882	73.2654	-37.3148	-107.346	58.2407	-67.8293	-102.202	101.939	-37.9895	-74.3318	92.423	-53.0563	-93.1296	75.3152	-80.58	-86.6706	93.9286	-11.7259	-31.1459	104.411	-12.3487	-6.93811	69.814	-3.08021	-13.9077	
58	0.483333	41.8353	-27.8276	-2.47807	19.0501	-41.0835	-18.7128	0.680794	-50.943	-39.1759	-2.66704	-63.169	-61.3532	42.1184	-9.40412	-74.3011	25.1486	-10.7935	-102.285	16.2626	-28.2605	-121.716	66.5806	-9.33095	-83.2181	58.9269	-15.2279	-117.835	44.156	-41.4836	-139.109	84.3123	-17.4426	-79.3552	85.7818	-25.0473	-110.112	76.295	-44.9828	-128.245	109.341	-34.1021	-69.7235	110.583	-43.6734	-94.1764	104.152	-65.3815	-110.964	97.4202	-13.8874	-30.1919	105.163	-11.2679	-1.18664	68.918	-4.07307	-12.6282	
59	0.491667	45.1731	-28.4118	-4.61814	19.0708	-39.8411	-20.7589	6.58633	-50.6403	-44.9668	-5.00744	-61.115	-59.1089	43.1666	-9.22139	-76.1684	33.6891	-8.1815	-101.604	26.289	-12.0169	-127.48	72.5332	-6.97303	-88.3057	67.4619	-5.63194	-116.762	60.3882	-12.5159	-145.356	95.7999	-15.3965	-81.1368	98.164	-14.7932	-107.982	97.7188	-22.6449	-133.895	117.285	-31.2723	-66.3929	124.974	-35.5694	-88.749	125.969	-44.4716	-111.005	98.699	-11.4741	-35.1417	106.435	-8.72387	-1.92188	72.162	-3.16061	-14.2889	
60	0.5	45.9608	-25.5426	-5.75967	28.3679	-36.8611	-26.9593	8.26538	-46.0962	-46.766	-5.82096	-56.0682	-62.676	52.5683	-6.09776	-83.4732	38.9334	-4.54265	-107.223	30.9869	-1.38781	-129.794	79.7516	-3.87639	-86.3028	74.7626	0.0417397	-114.143	75.8004	2.64681	-149.929	105.495	-12.2285	-84.7428	108.333	-10.3662	-106.108	112.194	-9.08345	-133.414	126.046	-29.667	-66.1676	130.906	-29.9145	-90.1488	144.365	-32.1765	-105.78	106.46	-7.96713	-35.0369	110.61	-5.74071	-4.64313	75.7523	-0.461969	-20.9477	
61	0.508333	49.61	-22.6704	-13.1473	27.3198	-33.9918	-27.9402	9.26317	-42.7017	-51.0876	1.84429	-51.5444	-67.9044	57.985	-3.92225	-81.4512	49.6895	-0.143984	-109.697	38.8867	2.82998	-128.597	90.353	-1.28618	-87.168	83.4872	7.39359	-116.373	81.8968	12.3501	-146.098	108.464	-8.44254	-82.6538	113.883	-3.37846	-102.841	121.384	0.444334	-128.892	129.542	-24.3259	-69.6093	140.028	-26.5251	-83.8476	152.459	-21.9041	-107.223	110.353	-7.227	-36.675	113.367	-4.26566	-6.19747	76.2166	1.46307	-21.4817	
62	0.516667	53.0363	-20.1788	-15.6165	34.5766	-32.7547	-34.2676	15.8918	-41.5581	-59.1677	5.41109	-50.4649	-73.1732	67.9687	-3.64898	-86.3204	59.0853	-1.13023	-110.566	46.6185	2.50046	-135.024	97.4071	3.9204	-93.5367	92.8696	8.74858	-117.708	95.3144	13.9617	-150.779	119.435	-7.9274	-81.5593	122.037	0.454893	-107.928	131.743	4.11364	-134.016	139.205	-24.0493	-65.8056	148.665	-23.3036	-86.2582	160.322	-20.4736	-105.887	114.448	-4.72909	-35.0365	119.008	-1.5722	-5.03286	83.295	1.43322	-25.8292	
63	0.525	58.1939	-25.395	-21.7088	41.522	-39.346	-40.1196	23.3138	-49.9613	-60.6982	11.6019	-61.8596	-78.1566	76.1994	-13.3533	-92.8614	61.0677	-12.486	-118.19	59.2784	-14.8967	-143.633	105.823	-6.84732	-95.7113	103.8	-3.22556	-120.864	107.398	0.0542061	-157.136	128.038	-15.0614	-83.5449	134.867	-10.3069	-108.148	142.309	-8.92155	-133.026	146.906	-28.934	-66.4081	155.027	-29.8338	-83.8696	171.642	-27.4154	-101.341	121.235	-6.48696	-41.6674	121.439	-2.98969	-8.18984	86.168	-2.61076	-30.8997	
64	0.533333	63.9174	-33.4571	-18.053	44.4765	-50.992	-41.5063	29.0366	-64.7954	-56.5992	19.2766	-77.704	-74.964	77.0298	-30.126	-92.9203	66.7622	-35.8111	-122.21	64.7867	-40.8017	-145.179	106.91	-22.8267	-98.8815	111.756	-23.7341	-125.565	110.469	-25.561	-157.141	132.097	-27.6159	-85.5764	142.753	-25.0696	-112.674	147.18	-27.2731	-133.419	150.864	-38.3438	-67.3558	164.895	-41.0927	-83.7821	181.151	-41.5476	-97.5849	125.74	-15.8294	-44.1309	124.433	-6.61519	-12.6976	91.2079	-10.9294	-32.406	
